<?xml version="1.0" encoding="UTF-8" standalone="no"?>
<!-- Created with Inkscape (http://www.inkscape.org/) -->

<svg
   width="100mm"
   height="100mm"
   viewBox="0 0 100 100"
   version="1.1"
   id="svg1017"
   inkscape:version="1.2.2 (732a01da63, 2022-12-09)"
   sodipodi:docname="cart-icon.svg"
   xmlns:inkscape="http://www.inkscape.org/namespaces/inkscape"
   xmlns:sodipodi="http://sodipodi.sourceforge.net/DTD/sodipodi-0.dtd"
   xmlns="http://www.w3.org/2000/svg"
   xmlns:svg="http://www.w3.org/2000/svg">
  <sodipodi:namedview
     id="namedview1019"
     pagecolor="#ffffff"
     bordercolor="#000000"
     borderopacity="0.25"
     inkscape:showpageshadow="2"
     inkscape:pageopacity="0.0"
     inkscape:pagecheckerboard="0"
     inkscape:deskcolor="#d1d1d1"
     inkscape:document-units="mm"
     showgrid="false"
     inkscape:zoom="2.0769792"
     inkscape:cx="188.97638"
     inkscape:cy="188.97638"
     inkscape:window-width="1920"
     inkscape:window-height="1001"
     inkscape:window-x="-9"
     inkscape:window-y="-9"
     inkscape:window-maximized="1"
     inkscape:current-layer="layer1" />
  <defs
     id="defs1014" />
  <g
     inkscape:label="Layer 1"
     inkscape:groupmode="layer"
     id="layer1">
    <circle
       style="fill:#ffffff;fill-opacity:1;stroke:none;stroke-width:0.9901;stroke-dasharray:none;stroke-opacity:1"
       id="path1073"
       cx="50"
       cy="50"
       r="49.504951" />
    <path
       sodipodi:type="star"
       style="fill:#000000;fill-opacity:1;stroke:none;stroke-width:1;stroke-opacity:1"
       id="path10730"
       inkscape:flatsided="true"
       sodipodi:sides="4"
       sodipodi:cx="86.751587"
       sodipodi:cy="19.235668"
       sodipodi:r1="30.017509"
       sodipodi:r2="0.38994211"
       sodipodi:arg1="1.8724154"
       sodipodi:arg2="2.6578136"
       inkscape:rounded="0.78"
       inkscape:randomized="1.1449175e-15"
       d="M 77.834388,47.89809 C 46.217255,38.061648 48.252722,41.935602 58.089165,10.318469 67.925607,-21.298664 64.051653,-19.263196 95.668786,-9.4267539 127.28592,0.40968845 125.25045,-3.4642661 115.41401,28.152867 105.57757,59.77 109.45152,57.734533 77.834388,47.89809 Z"
       inkscape:transform-center-x="4.1673908"
       inkscape:transform-center-y="-2.2208643"
       transform="matrix(-0.62984676,0.20261026,-0.20261026,-0.62984676,108.53755,55.809762)" />
    <path
       style="fill:none;fill-opacity:1;stroke:#000000;stroke-width:1.04662;stroke-opacity:1"
       d="m 34.325076,69.946588 c 4.541381,-30.687931 2.31703,-17.26196 4.541381,-30.687931 2.224351,-13.425971 9.268124,-16.494765 11.029068,-15.535768 1.760945,0.958999 3.521888,0.5754 5.468195,3.835992 1.946306,3.260594 4.356019,7.671982 5.746239,12.083374 1.390218,4.411389 0.834128,1.917996 1.390218,4.411389 0.556087,2.493394 1.297536,7.480187 2.409712,15.343967"
       id="path11514" />
  </g>
</svg>
